<svg xmlns="http://www.w3.org/2000/svg" width="2777.953" height="850.394">
  <style>
<![CDATA[
	.st0{fill:url(#SVGID_1_);}
	.st1{fill:url(#SVGID_2_);}
	.st2{fill:url(#SVGID_3_);}
	.st3{fill:url(#SVGID_4_);}
	.st4{fill:url(#SVGID_5_);}
	.st5{fill:url(#SVGID_6_);}
	.st6{fill:url(#SVGID_7_);}
	.st7{fill:url(#SVGID_8_);}
	.st8{fill:#333C43;}
	.st9{display:none;}
]]>
  </style>
  <g id="elements">
    <g id="symbol">
      <path d="M5.78 204.936c-40.95 7.98 149.555 44.357 137.124 19.967-14.775-28.988-2.087-56.148 11.517-70.545 52-55.006 132.51-67.354 192.81-1.327 30.39 33.27 28.1 87.32 26.22 133.09-3.89 94.8-22.28 178.6-22.08 299.45.08 50.2 15.04 118.97 32.67 174.5 0 0-138.05 50.23-225.93-10.8-32.74-22.74-52.46-71.2-52.46-131.09 0-64.49 26.4-124.17 53.15-167.69 9.52-15.48 21.4-30.61 23.02-49.02 2.1-24.01 4.26-47.61.46-50.79-10.79-9.02-32.14 19.24-63.05 51.68-27.12 28.47-56.59 59.45-77.29 97.38C-19.1 611.56-1.21 772.37 131.9 827.79c34.074 14.2 95.356 26.18 144.607 21.63 78.26-7.25 142.5-38.94 142.5-38.94s15.405 22.09 41.42 31.94c44.695 16.937 191.55 1.638 191.55 1.638-18.64-24.594-34.72-33.858-45.028-60.485-60.92-157.42 11.32-357.72-36.08-550.804C545.07 127.71 488.43 74.4 425 46.12c-58.22-25.956-152.784-27.288-224.58 21.73C157.066 97.46 75.763 191.29 5.78 204.93z" class="st8"/>
      <path d="M251.636 198.508c0 18.53-15.574 33.544-34.79 33.544-19.22 0-34.79-15.014-34.79-33.544 0-18.522 15.57-33.533 34.79-33.533 19.216 0 34.79 15.01 34.79 33.533z" class="st8"/>
    </g>
    <path id="experts" d="M898.875 736.124c-15.583 0-29.82-2.468-42.707-7.4-12.89-4.933-23.976-12.138-33.252-21.607-9.28-9.467-16.466-21.206-21.565-35.212-5.1-14-7.64-30.005-7.64-48.013 0-18.137 2.34-34.34 7.01-48.613 4.68-14.27 11.26-26.38 19.76-36.31 8.5-9.94 18.66-17.51 30.49-22.71 11.83-5.2 24.89-7.8 39.2-7.8 14.03 0 26.63 2.36 37.82 7.1 11.19 4.73 20.68 11.4 28.47 20 7.79 8.6 13.78 18.94 17.96 31.01 4.18 12.07 6.27 25.44 6.27 40.11v22.6H833.65c.707 25.74 6.48 44.68 17.316 56.81 10.84 12.14 26.95 18.2 48.34 18.2 7.227 0 13.92-.33 20.08-1 6.16-.67 12.11-1.63 17.85-2.9 5.737-1.27 11.294-2.87 16.68-4.8 5.38-1.93 10.835-4.1 16.36-6.5v32.41c-5.667 2.53-11.23 4.73-16.68 6.6-5.454 1.87-11.05 3.4-16.785 4.6-5.73 1.2-11.68 2.06-17.84 2.6-6.16.53-12.85.8-20.08.8zm-9.56-197.454c-16.15 0-28.934 5.2-38.353 15.604-9.42 10.402-14.91 25.542-16.466 45.41h104.537c0-9.065-.956-17.368-2.87-24.906-1.91-7.53-4.886-13.97-8.922-19.305-4.03-5.332-9.17-9.47-15.4-12.404-6.23-2.94-13.74-4.4-22.52-4.4zm198.238 80.82l-75.003-107.028h43.982l53.118 82.022 53.118-82.022h43.982l-75.428 107.03 79.252 112.63h-43.982L1109.65 644.9l-57.37 87.225h-43.98l79.253-112.632zm270.412 116.634c-8.36 0-15.935-.87-22.734-2.6-6.8-1.732-12.92-4.032-18.37-6.904-5.45-2.864-10.27-6.232-14.45-10.1-4.18-3.87-7.9-7.937-11.15-12.205h-2.55c.43 4.534.85 8.87 1.28 13.004.28 3.46.57 7.03.85 10.7.28 3.67.43 6.56.43 8.7v93.82h-38.67V512.46h31.45l5.53 29.61h1.7c3.26-4.667 6.94-9.036 11.05-13.105 4.11-4.066 8.89-7.602 14.34-10.602 5.45-3.002 11.58-5.402 18.38-7.202 6.8-1.79 14.45-2.7 22.95-2.7 13.31 0 25.43 2.4 36.33 7.2 10.91 4.81 20.22 11.98 27.94 21.51 7.72 9.54 13.71 21.38 17.96 35.51 4.25 14.14 6.38 30.54 6.38 49.21 0 18.81-2.12 35.31-6.37 49.52s-10.23 26.11-17.95 35.71c-7.72 9.6-17.03 16.84-27.94 21.71-10.91 4.87-23.02 7.3-36.33 7.3zm-7.437-197.454c-10.766 0-19.866 1.535-27.303 4.6-7.436 3.07-13.458 7.738-18.06 14.004-4.604 6.27-8.004 14.072-10.198 23.408-2.198 9.335-3.437 20.34-3.72 33.01v8.2c0 13.473.957 25.442 2.87 35.908 1.912 10.475 5.168 19.277 9.773 26.408 4.6 7.138 10.73 12.54 18.38 16.208 7.647 3.67 17.21 5.498 28.683 5.498 19.122 0 33.18-7.265 42.176-21.805 8.99-14.54 13.49-35.41 13.49-62.62 0-27.74-4.5-48.48-13.49-62.22-9-13.74-23.2-20.61-42.61-20.61zm245.488 197.454c-15.582 0-29.82-2.468-42.707-7.4-12.89-4.933-23.98-12.138-33.26-21.607-9.28-9.467-16.47-21.206-21.57-35.212-5.1-14-7.65-30.005-7.65-48.013 0-18.137 2.34-34.34 7.01-48.613 4.67-14.27 11.26-26.38 19.76-36.31 8.5-9.94 18.66-17.51 30.49-22.71 11.82-5.2 24.89-7.8 39.2-7.8 14.02 0 26.63 2.36 37.82 7.1 11.19 4.73 20.68 11.4 28.47 20 7.79 8.6 13.77 18.94 17.95 31.01s6.27 25.44 6.27 40.11v22.6h-147.03c.71 25.74 6.48 44.68 17.31 56.81 10.83 12.14 26.94 18.2 48.34 18.2 7.22 0 13.91-.33 20.07-1 6.16-.67 12.11-1.63 17.85-2.9 5.73-1.27 11.29-2.87 16.68-4.8 5.38-1.93 10.83-4.1 16.36-6.5v32.41c-5.67 2.53-11.23 4.73-16.68 6.6-5.46 1.87-11.05 3.4-16.79 4.6-5.74 1.2-11.69 2.06-17.85 2.6-6.17.53-12.86.8-20.08.8zm-9.56-197.454c-16.148 0-28.932 5.2-38.35 15.604-9.424 10.402-14.91 25.542-16.468 45.41h104.537c0-9.065-.958-17.368-2.87-24.906-1.912-7.53-4.887-13.97-8.924-19.305-4.03-5.332-9.17-9.47-15.4-12.404-6.23-2.94-13.74-4.4-22.52-4.4zm245.792-30.21c4.105 0 8.71.168 13.812.5 5.1.334 9.487.835 13.173 1.5l-5.1 33.61c-3.968-.665-8.04-1.23-12.217-1.7-4.18-.467-8.11-.7-11.794-.7-8.924 0-17.07 1.7-24.433 5.102-7.37 3.4-13.71 8.272-19.02 14.604-5.31 6.336-9.42 13.937-12.32 22.804-2.91 8.872-4.36 18.707-4.36 29.51v118.434h-38.67V512.462h31.44l4.67 40.212h1.7c3.54-5.732 7.33-11.27 11.36-16.606 4.03-5.332 8.57-10.034 13.6-14.104 5.02-4.066 10.65-7.334 16.89-9.803 6.23-2.46 13.31-3.7 21.25-3.7zm155.476 197.854c2.55 0 5.418-.132 8.605-.4 3.18-.265 6.26-.6 9.24-1s5.7-.864 8.18-1.4c2.47-.53 4.35-1 5.63-1.4v27.61c-1.85.8-4.18 1.6-7.01 2.4-2.84.8-5.95 1.5-9.35 2.1-3.4.6-6.94 1.065-10.62 1.4-3.69.332-7.3.5-10.84.5-8.79 0-16.93-1.068-24.44-3.2-7.51-2.133-13.99-5.804-19.44-11.005-5.46-5.21-9.74-12.24-12.86-21.11-3.12-8.87-4.68-20.04-4.68-33.51V539.87h-32.94v-16.203l32.93-15.604 16.57-46.01h22.31v50.416h58.64v27.4H1959v127.44c0 12.94 2.23 22.67 6.69 29.2 4.465 6.53 11.796 9.8 21.993 9.8zm223.3-34.41c0 10.672-2.056 20.01-6.163 28.01-4.1 8.003-10.02 14.705-17.74 20.105-7.72 5.4-17.03 9.43-27.94 12.1-10.91 2.66-23.16 4-36.75 4-15.44 0-28.68-1.17-39.73-3.5-11.05-2.34-20.75-5.77-29.1-10.31v-33.2c4.39 2.13 9.28 4.23 14.66 6.3 5.38 2.07 11.05 3.9 17 5.5 5.95 1.6 12.08 2.9 18.38 3.9 6.3 1 12.57 1.5 18.81 1.5 9.21 0 17.03-.73 23.48-2.2 6.45-1.47 11.69-3.57 15.73-6.31 4.04-2.73 6.98-6.07 8.82-10.01 1.84-3.93 2.76-8.31 2.76-13.11 0-4.13-.71-7.87-2.12-11.21-1.42-3.33-4-6.63-7.76-9.9-3.75-3.26-8.89-6.56-15.4-9.9-6.51-3.33-14.87-7.07-25.07-11.2-10.2-4.14-19.37-8.21-27.51-12.2-8.15-4.01-15.05-8.47-20.72-13.41-5.67-4.94-10.02-10.64-13.07-17.11-3.05-6.47-4.57-14.17-4.57-23.11 0-9.33 1.95-17.64 5.85-24.91 3.89-7.26 9.38-13.36 16.47-18.3 7.08-4.93 15.58-8.67 25.5-11.2 9.91-2.53 20.96-3.8 33.15-3.8 13.74 0 26.31 1.4 37.71 4.2 11.4 2.8 22.2 6.47 32.4 11l-13.39 29.41c-9.21-3.87-18.66-7.23-28.36-10.1-9.702-2.87-19.583-4.3-29.64-4.3-14.45 0-25.144 2.23-32.082 6.7-6.94 4.47-10.41 10.84-10.41 19.11 0 4.67.816 8.73 2.447 12.2 1.62 3.47 4.42 6.73 8.39 9.8 3.96 3.07 9.27 6.17 15.93 9.3 6.65 3.13 14.94 6.64 24.86 10.5 10.2 4 19.3 8 27.31 12.002 8 4 14.83 8.503 20.5 13.5 5.664 5.005 9.984 10.706 12.96 17.11 2.97 6.4 4.46 14.08 4.46 23.01z" class="st8"/>
    <linearGradient id="SVGID_1_" x1="1785.827" x2="1785.827" y1="396.851" gradientUnits="userSpaceOnUse">
      <stop offset="0" stop-color="#172128"/>
      <stop offset="1" stop-color="#333C43"/>
    </linearGradient>
    <path d="M989.596 392.67c-7.504 0-13.17-1.045-17.006-3.135-3.836-2.09-7.033-6.44-9.59-13.062l-5.626-14.892c-6.65 5.75-13.042 10.81-19.18 15.16-6.14 4.36-12.492 8.06-19.054 11.11-6.565 3.05-13.554 5.31-20.97 6.79-7.417 1.48-15.644 2.23-24.68 2.23-12.106 0-23.103-1.61-32.99-4.83-9.89-3.22-18.285-7.97-25.19-14.24-6.905-6.27-12.235-14.06-15.983-23.38-3.752-9.32-5.626-20.07-5.626-32.27 0-9.57 2.39-19.41 7.17-29.52 4.77-10.1 13.04-19.28 24.81-27.56 11.77-8.27 27.62-15.19 47.57-20.77 19.95-5.57 45.1-8.71 75.45-9.4v-11.5c0-15.85-3.2-27.3-9.59-34.35s-15.47-10.58-27.24-10.58c-9.38 0-17.05 1.05-23.01 3.14-5.97 2.09-11.29 4.44-15.98 7.06-4.69 2.62-9.25 4.97-13.68 7.06s-9.72 3.14-15.85 3.14c-5.46 0-10.06-1.39-13.81-4.18-3.75-2.78-6.82-6.09-9.21-9.92L806 159.4c16.024-14.45 33.8-25.21 53.32-32.26 19.52-7.05 40.45-10.58 62.786-10.58 16.025 0 30.474 2.66 43.35 7.97 12.87 5.32 23.783 12.72 32.733 22.21 8.95 9.5 15.81 20.77 20.58 33.84 4.77 13.06 7.16 27.34 7.16 42.84V392.7H989.6zm-91.043-49.378c10.23 0 19.18-1.83 26.853-5.486 7.672-3.658 15.428-9.577 23.272-17.765v-37.62c-15.855.7-28.898 2.09-39.128 4.18s-18.33 4.71-24.295 7.84c-5.97 3.14-10.1 6.71-12.403 10.71-2.302 4.01-3.453 8.36-3.453 13.07 0 9.24 2.46 15.72 7.41 19.47 4.94 3.75 12.18 5.62 21.73 5.62z" class="st0"/>
    <linearGradient id="SVGID_2_" x1="1785.827" x2="1785.827" y1="396.851" gradientUnits="userSpaceOnUse">
      <stop offset="0" stop-color="#172128"/>
      <stop offset="1" stop-color="#333C43"/>
    </linearGradient>
    <path d="M1181.394 1.568V392.67h-79.28V1.568h79.28z" class="st1"/>
    <linearGradient id="SVGID_3_" x1="1785.827" x2="1785.827" y1="396.851" gradientUnits="userSpaceOnUse">
      <stop offset="0" stop-color="#172128"/>
      <stop offset="1" stop-color="#333C43"/>
    </linearGradient>
    <path d="M1260.67 392.67V121.746h47.056c3.92 0 7.2.35 9.846 1.045 2.64.7 4.86 1.79 6.65 3.27s3.152 3.44 4.09 5.88c.937 2.44 1.748 5.4 2.43 8.89l3.837 22.99c8.35-14.63 17.85-26.16 28.51-34.61 10.65-8.44 22.89-12.67 36.7-12.67 11.93 0 21.65 2.88 29.15 8.62l-5.12 59.57c-.86 3.84-2.26 6.45-4.22 7.84-1.96 1.4-4.65 2.09-8.06 2.09-1.37 0-3.16-.08-5.37-.26-2.22-.17-4.52-.39-6.91-.65-2.39-.26-4.82-.52-7.29-.78-2.48-.26-4.73-.39-6.78-.39-11.6 0-20.85 3.18-27.75 9.54-6.91 6.36-12.75 15.11-17.52 26.26V392.7h-79.28z" class="st2"/>
    <linearGradient id="SVGID_4_" x1="1785.827" x2="1785.827" y1="396.851" gradientUnits="userSpaceOnUse">
      <stop offset="0" stop-color="#172128"/>
      <stop offset="1" stop-color="#333C43"/>
    </linearGradient>
    <path d="M1599.01 117.566c20.116 0 38.445 3.225 54.984 9.666 16.536 6.446 30.73 15.676 42.58 27.693 11.85 12.018 21.056 26.607 27.62 43.76 6.562 17.158 9.847 36.446 9.847 57.87 0 21.6-3.28 41.062-9.84 58.39-6.56 17.334-15.77 32.05-27.62 44.154-11.85 12.1-26.04 21.42-42.58 27.95-16.54 6.53-34.87 9.8-54.98 9.8-20.29 0-38.74-3.27-55.36-9.8-16.62-6.53-30.94-15.85-42.96-27.96-12.02-12.11-21.31-26.82-27.87-44.16-6.56-17.33-9.85-36.79-9.85-58.39 0-21.43 3.28-40.71 9.85-57.87 6.56-17.16 15.86-31.75 27.88-43.76 12.02-12.02 26.34-21.25 42.97-27.7 16.62-6.44 35.08-9.67 55.37-9.67zm0 219.195c18.242 0 31.668-6.57 40.28-19.72 8.606-13.15 12.915-33.13 12.915-59.96 0-26.82-4.31-46.76-12.915-59.83-8.612-13.06-22.038-19.59-40.28-19.59-18.756 0-32.478 6.53-41.174 19.6-8.694 13.07-13.042 33.01-13.042 59.83 0 26.83 4.348 46.81 13.042 59.96 8.697 13.16 22.418 19.73 41.175 19.73z" class="st3"/>
    <linearGradient id="SVGID_5_" x1="1785.827" x2="1785.827" y1="396.851" gradientUnits="userSpaceOnUse">
      <stop offset="0" stop-color="#172128"/>
      <stop offset="1" stop-color="#333C43"/>
    </linearGradient>
    <path d="M1799.507 392.67V121.746h49.102c9.88 0 16.36 4.53 19.43 13.586l4.6 15.675c5.11-4.874 10.39-9.405 15.85-13.585 5.45-4.18 11.29-7.707 17.52-10.58 6.22-2.875 12.95-5.137 20.2-6.793 7.24-1.66 15.13-2.49 23.65-2.49 14.49 0 27.32 2.57 38.49 7.7 11.16 5.14 20.58 12.28 28.25 21.42 7.67 9.14 13.47 20.03 17.39 32.65 3.92 12.63 5.88 26.35 5.88 41.15v172.17h-79.28V220.5c0-13.233-2.98-23.553-8.95-30.958-5.97-7.4-14.75-11.103-26.34-11.103-8.7 0-16.88 1.91-24.55 5.74-7.67 3.83-15.01 8.97-21.99 15.41v193.07h-79.28z" class="st4"/>
    <linearGradient id="SVGID_6_" x1="1785.827" x2="1785.827" y1="396.851" gradientUnits="userSpaceOnUse">
      <stop offset="0" stop-color="#172128"/>
      <stop offset="1" stop-color="#333C43"/>
    </linearGradient>
    <path d="M2205.872 47.55c0 6.445-1.278 12.5-3.835 18.156-2.558 5.662-6.055 10.626-10.485 14.892-4.436 4.27-9.59 7.667-15.473 10.19-5.89 2.525-12.15 3.787-18.8 3.787-6.48 0-12.53-1.26-18.16-3.788-5.63-2.523-10.62-5.92-14.96-10.19-4.35-4.265-7.76-9.23-10.23-14.89-2.48-5.66-3.71-11.712-3.71-18.158 0-6.62 1.23-12.81 3.71-18.55 2.47-5.75 5.88-10.8 10.23-15.16 4.34-4.35 9.33-7.75 14.96-10.19 5.63-2.43 11.68-3.65 18.16-3.65 6.65 0 12.91 1.22 18.8 3.65 5.88 2.44 11.03 5.83 15.47 10.19 4.43 4.35 7.93 9.4 10.48 15.15 2.55 5.74 3.83 11.93 3.83 18.55zm-8.184 74.196V392.67h-79.278V121.746h79.278z" class="st5"/>
    <linearGradient id="SVGID_7_" x1="1785.827" x2="1785.827" y1="396.851" gradientUnits="userSpaceOnUse">
      <stop offset="0" stop-color="#172128"/>
      <stop offset="1" stop-color="#333C43"/>
    </linearGradient>
    <path d="M2358.037 1.568v219.195h11.764c4.95 0 8.7-.74 11.26-2.22 2.56-1.48 5.12-3.96 7.67-7.447l50.13-76.287c3.07-4.36 6.56-7.62 10.49-9.8 3.92-2.18 8.95-3.27 15.09-3.27h72.63l-68.54 96.4c-6.48 8.71-14.15 15.85-23.02 21.42 3.92 2.96 7.5 6.4 10.74 10.32s6.31 8.32 9.21 13.19l74.68 129.58h-71.6c-5.97 0-11.08-1-15.34-3.01-4.26-2-7.84-5.53-10.74-10.58l-50.12-95.88c-2.39-4.35-4.86-7.19-7.42-8.49s-6.39-1.96-11.51-1.96h-15.34v119.92h-79.28V1.56h79.28z" class="st6"/>
    <linearGradient id="SVGID_8_" x1="1785.827" x2="1785.827" y1="396.851" gradientUnits="userSpaceOnUse">
      <stop offset="0" stop-color="#172128"/>
      <stop offset="1" stop-color="#333C43"/>
    </linearGradient>
    <path d="M2758.517 181.052c-2.047 3.31-4.22 5.662-6.522 7.054-2.302 1.396-5.242 2.09-8.823 2.09-3.752 0-7.504-.825-11.252-2.482-3.752-1.653-7.8-3.438-12.148-5.356-4.347-1.915-9.25-3.698-14.704-5.356-5.458-1.653-11.68-2.482-18.67-2.482-10.06 0-17.772 1.96-23.144 5.878-5.37 3.92-8.056 9.364-8.056 16.33 0 5.053 1.747 9.233 5.243 12.54 3.5 3.31 8.14 6.23 13.94 8.752 5.8 2.527 12.36 4.923 19.69 7.185 7.33 2.266 14.84 4.792 22.51 7.577 7.67 2.788 15.18 6.054 22.51 9.797 7.33 3.74 13.9 8.36 19.69 13.84 5.8 5.48 10.45 12.15 13.94 19.98 3.49 7.84 5.25 17.24 5.25 28.21 0 13.41-2.39 25.78-7.16 37.1s-11.89 21.07-21.35 29.26c-9.46 8.18-21.14 14.54-35.03 19.07-13.9 4.52-29.88 6.79-47.95 6.79-9.03 0-18.07-.87-27.1-2.61-9.04-1.74-17.77-4.09-26.21-7.06-8.44-2.96-16.24-6.49-23.4-10.58s-13.3-8.49-18.41-13.2l18.42-29.79c2.04-3.49 4.64-6.23 7.8-8.23 3.15-2 7.2-3.01 12.15-3.01 4.61 0 8.74 1.04 12.4 3.13 3.67 2.09 7.63 4.35 11.89 6.79 4.26 2.44 9.25 4.7 14.96 6.79 5.71 2.09 12.92 3.13 21.61 3.13 6.14 0 11.34-.66 15.6-1.96 4.26-1.31 7.67-3.09 10.23-5.36 2.56-2.26 4.43-4.79 5.63-7.58 1.19-2.786 1.79-5.66 1.79-8.62 0-5.39-1.79-9.837-5.37-13.32-3.58-3.488-8.27-6.49-14.06-9.02-5.8-2.52-12.4-4.875-19.82-7.055-7.42-2.18-14.96-4.66-22.63-7.45-7.67-2.784-15.215-6.14-22.63-10.06-7.42-3.917-14.03-8.88-19.82-14.89-5.8-6.01-10.485-13.366-14.065-22.077-3.58-8.703-5.37-19.24-5.37-31.61 0-11.49 2.17-22.42 6.52-32.79 4.35-10.36 10.87-19.46 19.563-27.3 8.69-7.833 19.6-14.06 32.73-18.68 13.13-4.61 28.477-6.92 46.037-6.92 9.544 0 18.794.877 27.745 2.615 8.95 1.74 17.347 4.18 25.19 7.313 7.84 3.14 15 6.84 21.48 11.11 6.476 4.27 12.186 8.926 17.13 13.975L2758.56 181z" class="st7"/>
  </g>
</svg>
